<svg width="2000" height="1853" viewBox="0 0 2000 1853" fill="none" xmlns="http://www.w3.org/2000/svg">
<g clip-path="url(#clip0_18_318)">
<rect width="2000" height="1852.92" fill="#F9F9F9"/>
<path d="M143.381 -979.002C472.289 -421.466 1354.12 444.303 2250.18 -552.903" stroke="white" stroke-opacity="0.45" stroke-width="3"/>
<path d="M159.724 -925.949C510.004 -381.587 1424.74 449.338 2281.46 -581.863" stroke="white" stroke-opacity="0.45" stroke-width="3"/>
<path d="M176.069 -872.896C547.193 -342.525 1493.46 452.305 2309.55 -611.34" stroke="white" stroke-opacity="0.45" stroke-width="3"/>
<path d="M192.412 -819.843C583.823 -304.262 1560.2 453.279 2334.44 -641.21" stroke="white" stroke-opacity="0.45" stroke-width="3"/>
<path d="M257.788 -607.632C724.165 -158.723 1805.87 438.85 2401.69 -762.127" stroke="white" stroke-opacity="0.45" stroke-width="3"/>
<path d="M274.132 -554.579C757.565 -124.092 1861.63 431.088 2410.43 -792.089" stroke="white" stroke-opacity="0.45" stroke-width="3"/>
<path d="M290.476 -501.527C790.238 -90.1081 1915 421.844 2415.96 -821.693" stroke="white" stroke-opacity="0.45" stroke-width="3"/>
<path d="M306.82 -448.474C822.158 -56.7433 1965.93 411.211 2418.29 -850.816" stroke="white" stroke-opacity="0.45" stroke-width="3"/>
<path d="M323.164 -395.421C853.304 -23.9675 2014.36 399.285 2417.44 -879.333" stroke="white" stroke-opacity="0.45" stroke-width="3"/>
<path d="M339.508 -342.368C883.653 8.24962 2060.24 386.164 2413.45 -907.123" stroke="white" stroke-opacity="0.45" stroke-width="3"/>
<path d="M355.852 -289.315C913.183 39.9393 2103.54 371.946 2406.33 -934.063" stroke="white" stroke-opacity="0.45" stroke-width="3"/>
<path d="M372.196 -236.262C941.875 71.1339 2144.21 356.735 2396.13 -960.033" stroke="white" stroke-opacity="0.45" stroke-width="3"/>
<path d="M388.54 -183.21C969.71 101.866 2182.22 340.631 2382.89 -984.915" stroke="white" stroke-opacity="0.45" stroke-width="3"/>
<path d="M404.883 -130.157C996.67 132.169 2217.52 323.739 2366.65 -1008.59" stroke="white" stroke-opacity="0.45" stroke-width="3"/>
<path d="M421.228 -77.1042C1022.74 162.078 2250.11 306.165 2347.46 -1030.95" stroke="white" stroke-opacity="0.45" stroke-width="3"/>
<path d="M437.571 -24.0514C1047.91 191.627 2279.94 288.014 2325.37 -1051.87" stroke="white" stroke-opacity="0.45" stroke-width="3"/>
<path d="M453.916 29.0015C1072.16 220.852 2306.99 269.394 2300.44 -1071.24" stroke="white" stroke-opacity="0.45" stroke-width="3"/>
<path d="M470.259 82.0543C1095.47 249.788 2331.27 250.412 2272.73 -1088.96" stroke="white" stroke-opacity="0.45" stroke-width="3"/>
<path d="M486.603 135.107C1117.85 278.471 2352.74 231.177 2242.31 -1104.92" stroke="white" stroke-opacity="0.45" stroke-width="3"/>
<path d="M502.947 188.16C1139.28 306.94 2371.4 211.797 2209.25 -1119.01" stroke="white" stroke-opacity="0.45" stroke-width="3"/>
<path d="M519.291 241.213C1159.75 335.229 2387.26 192.382 2173.63 -1131.14" stroke="white" stroke-opacity="0.45" stroke-width="3"/>
<path d="M535.635 294.265C1179.26 363.377 2400.3 173.041 2135.51 -1141.2" stroke="white" stroke-opacity="0.45" stroke-width="3"/>
<path d="M551.979 347.318C1197.8 391.421 2410.55 153.881 2094.99 -1149.1" stroke="white" stroke-opacity="0.45" stroke-width="3"/>
<path d="M568.323 400.371C1215.37 419.399 2417.99 135.013 2052.15 -1154.76" stroke="white" stroke-opacity="0.45" stroke-width="3"/>
<path d="M584.667 453.424C1231.96 447.348 2422.66 116.544 2007.08 -1158.07" stroke="white" stroke-opacity="0.45" stroke-width="3"/>
<path d="M601.011 506.477C1247.58 475.307 2424.55 98.5812 1959.87 -1158.96" stroke="white" stroke-opacity="0.45" stroke-width="3"/>
<path d="M617.354 559.529C1262.23 503.312 2423.71 81.232 1910.61 -1157.34" stroke="white" stroke-opacity="0.45" stroke-width="3"/>
<path d="M633.699 612.582C1275.91 531.402 2420.15 64.6026 1859.41 -1153.15" stroke="white" stroke-opacity="0.45" stroke-width="3"/>
<path d="M650.042 665.635C1288.62 559.613 2413.9 48.7973 1806.37 -1146.29" stroke="white" stroke-opacity="0.45" stroke-width="3"/>
<path d="M666.387 718.688C1300.38 587.985 2405 33.9195 1751.58 -1136.72" stroke="white" stroke-opacity="0.45" stroke-width="3"/>
<path d="M682.73 771.741C1311.18 616.553 2393.49 20.072 1695.17 -1124.35" stroke="white" stroke-opacity="0.45" stroke-width="3"/>
<path d="M699.074 824.793C1321.03 645.354 2379.4 7.35474 1637.23 -1109.12" stroke="white" stroke-opacity="0.45" stroke-width="3"/>
<path d="M715.418 877.846C1329.95 674.425 2362.78 -4.13286 1577.88 -1091" stroke="white" stroke-opacity="0.45" stroke-width="3"/>
<path d="M731.762 930.899C1337.94 703.802 2343.69 -14.2938 1517.23 -1069.9" stroke="white" stroke-opacity="0.45" stroke-width="3"/>
<path d="M748.106 983.952C1345.02 733.521 2322.17 -23.033 1455.4 -1045.8" stroke="white" stroke-opacity="0.45" stroke-width="3"/>
<path d="M764.45 1037C1351.21 763.616 2298.28 -30.2578 1392.51 -1018.65" stroke="white" stroke-opacity="0.45" stroke-width="3"/>
<path d="M780.794 1090.06C1356.51 794.123 2272.09 -35.8774 1328.67 -988.404" stroke="white" stroke-opacity="0.45" stroke-width="3"/>
<path d="M797.138 1143.11C1360.95 825.075 2243.65 -39.8031 1264.01 -955.032" stroke="white" stroke-opacity="0.45" stroke-width="3"/>
<path d="M813.482 1196.16C1364.53 856.505 2213.04 -41.9499 1198.65 -918.504" stroke="white" stroke-opacity="0.45" stroke-width="3"/>
<path d="M829.826 1249.22C1367.29 888.446 2180.32 -42.2344 1132.7 -878.796" stroke="white" stroke-opacity="0.45" stroke-width="3"/>
<path d="M846.17 1302.27C1369.24 920.93 2145.58 -40.5763 1066.31 -835.887" stroke="white" stroke-opacity="0.45" stroke-width="3"/>
<path d="M862.513 1355.32C1370.41 953.987 2108.87 -36.8987 999.576 -789.762" stroke="white" stroke-opacity="0.45" stroke-width="3"/>
<path d="M878.858 1408.37C1370.81 987.647 2070.3 -31.1271 932.641 -740.411" stroke="white" stroke-opacity="0.45" stroke-width="3"/>
<path d="M895.201 1461.43C1370.47 1021.94 2029.93 -23.1902 865.624 -687.828" stroke="white" stroke-opacity="0.45" stroke-width="3"/>
<path d="M911.546 1514.48C1369.41 1056.9 1987.85 -13.02 798.653 -632.011" stroke="white" stroke-opacity="0.45" stroke-width="3"/>
<path d="M927.889 1567.53C1367.67 1092.54 1944.16 -0.552814 731.85 -572.967" stroke="white" stroke-opacity="0.45" stroke-width="3"/>
<path d="M944.233 1620.59C1365.27 1128.9 1898.93 14.2731 665.343 -510.703" stroke="white" stroke-opacity="0.45" stroke-width="3"/>
<path d="M960.577 1673.64C1362.23 1165.99 1852.27 31.5153 599.255 -445.233" stroke="white" stroke-opacity="0.45" stroke-width="3"/>
<path d="M976.921 1726.69C1358.58 1203.85 1804.27 51.2271 533.711 -376.577" stroke="white" stroke-opacity="0.45" stroke-width="3"/>
<path d="M993.265 1779.74C1354.37 1242.5 1755.03 73.4594 468.833 -304.756" stroke="white" stroke-opacity="0.45" stroke-width="3"/>
<path d="M1009.61 1832.8C1349.61 1281.96 1704.64 98.2576 404.744 -229.801" stroke="white" stroke-opacity="0.45" stroke-width="3"/>
<path d="M1025.95 1885.85C1344.34 1322.24 1653.2 125.665 341.565 -151.743" stroke="white" stroke-opacity="0.45" stroke-width="3"/>
<path d="M1042.3 1938.9C1338.59 1363.37 1600.82 155.72 279.415 -70.6205" stroke="white" stroke-opacity="0.45" stroke-width="3"/>
<path d="M1058.64 1991.96C1332.39 1405.37 1547.6 188.456 218.413 13.5245" stroke="white" stroke-opacity="0.45" stroke-width="3"/>
<path d="M1074.98 2045.01C1325.79 1448.25 1493.65 223.906 158.674 100.646" stroke="white" stroke-opacity="0.45" stroke-width="3"/>
<path d="M1091.33 2098.06C1318.8 1492.02 1439.06 262.095 100.314 190.691" stroke="white" stroke-opacity="0.45" stroke-width="3"/>
<path d="M1107.67 2151.11C1311.47 1536.71 1383.95 303.045 43.4438 283.605" stroke="white" stroke-opacity="0.45" stroke-width="3"/>
<path d="M1124.02 2204.17C1303.84 1582.32 1328.43 346.774 -11.8247 379.328" stroke="white" stroke-opacity="0.45" stroke-width="3"/>
<path d="M1140.36 2257.22C1295.94 1628.87 1272.6 393.298 -65.3857 477.796" stroke="white" stroke-opacity="0.45" stroke-width="3"/>
<path d="M1156.7 2310.27C1287.8 1676.36 1216.57 442.625 -117.133 578.94" stroke="white" stroke-opacity="0.45" stroke-width="3"/>
<path d="M1173.05 2363.32C1279.47 1724.81 1160.45 494.761 -166.964 682.689" stroke="white" stroke-opacity="0.45" stroke-width="3"/>
<path d="M1189.39 2416.38C1270.97 1774.22 1104.35 549.708 -214.78 788.965" stroke="white" stroke-opacity="0.45" stroke-width="3"/>
<path d="M1205.74 2469.43C1262.35 1824.59 1048.38 607.462 -260.483 897.689" stroke="white" stroke-opacity="0.45" stroke-width="3"/>
<path d="M1222.08 2522.48C1253.65 1875.93 992.639 668.017 -303.981 1008.78" stroke="white" stroke-opacity="0.45" stroke-width="3"/>
<path d="M1238.42 2575.54C1244.9 1928.25 937.248 731.361 -345.185 1122.14" stroke="white" stroke-opacity="0.45" stroke-width="3"/>
<path d="M1254.77 2628.59C1236.14 1981.53 882.31 797.479 -384.005 1237.69" stroke="white" stroke-opacity="0.45" stroke-width="3"/>
<path d="M1271.11 2681.64C1227.41 2035.8 827.932 866.351 -420.362 1355.34" stroke="white" stroke-opacity="0.45" stroke-width="3"/>
<path d="M1287.46 2734.69C1218.74 2091.03 774.221 937.954 -454.173 1474.97" stroke="white" stroke-opacity="0.45" stroke-width="3"/>
<path d="M1303.8 2787.75C1210.18 2147.23 721.281 1012.26 -485.366 1596.51" stroke="white" stroke-opacity="0.45" stroke-width="3"/>
<path d="M1320.14 2840.8C1201.76 2204.39 669.218 1089.23 -513.868 1719.83" stroke="white" stroke-opacity="0.45" stroke-width="3"/>
<path d="M1336.49 2893.85C1193.52 2262.52 618.134 1168.84 -539.61 1844.84" stroke="white" stroke-opacity="0.45" stroke-width="3"/>
<path d="M1352.83 2946.91C1185.49 2321.59 568.13 1251.05 -562.531 1971.43" stroke="white" stroke-opacity="0.45" stroke-width="3"/>
<path d="M1369.18 2999.96C1177.71 2381.6 519.307 1335.8 -582.571 2099.48" stroke="white" stroke-opacity="0.45" stroke-width="3"/>
<path d="M1385.52 3053.01C1170.22 2442.54 471.762 1423.06 -599.676 2228.89" stroke="white" stroke-opacity="0.45" stroke-width="3"/>
<path d="M1401.86 3106.06C1163.05 2504.4 425.59 1512.77 -613.795 2359.54" stroke="white" stroke-opacity="0.45" stroke-width="3"/>
</g>
<defs>
<clipPath id="clip0_18_318">
<rect width="2000" height="1852.92" fill="white"/>
</clipPath>
</defs>
</svg>
