<svg width="210" height="27" viewBox="0 0 210 27" fill="none" xmlns="http://www.w3.org/2000/svg">
<g id="Black" clip-path="url(#clip0_5_592)">
<path id="Vector" d="M10.4564 0.316164C6.48299 1.28147 2.68382 4.41872 0.941079 8.10757C0.174274 9.83133 0.0348548 10.5898 0 13.5547C0 16.7953 0.0697095 17.1746 1.11535 19.2775C2.57925 22.1735 4.87967 24.4833 7.80747 25.8968C10.0382 26.9655 10.2473 27 14.4647 27C18.5427 27 18.9261 26.931 20.7386 26.0347C21.7842 25.4831 23.1784 24.5523 23.8058 23.9662C26.0714 21.8287 27.7095 18.1399 27.7095 15.175V13.727H21.9585H16.2075V15.2784V16.8298H20.2158C24.6423 16.8298 24.6075 16.7953 23.5618 19.0707C22.8299 20.691 20.5992 22.794 18.7519 23.587C16.9046 24.4144 12.722 24.4144 10.3519 23.6214C7.91203 22.7595 5.05394 20.1394 3.97344 17.7951C2.161 13.727 3.27635 8.79707 6.69212 5.8322C11.049 2.00545 18.0548 2.17783 22.6905 6.21143L23.8755 7.24569L25.0606 6.28038C25.7228 5.72878 26.2805 5.21165 26.2805 5.10822C26.3154 4.66004 22.6207 2.2123 20.5295 1.28147C18.5776 0.41959 17.6017 0.212738 15.0224 0.0748367C13.2797 0.00588608 11.2232 0.109312 10.4564 0.316164Z" fill="#2B2A29"/>
<path id="Vector_2" d="M157.578 0.488533C153.117 1.90202 149.736 5.28059 148.446 9.62447C147.645 12.2101 147.924 17.1056 148.934 19.2775C150.015 21.6219 152.803 24.4833 155.348 25.8278C157.474 26.9655 157.648 27 161.552 27C165.281 27 165.7 26.931 167.582 26.0002C169.987 24.7936 172.845 22.07 173.925 19.9326C177.411 13.1065 174.518 4.55661 167.617 1.28146C164.793 -0.028595 160.332 -0.407824 157.578 0.488533ZM166.222 4.03948C170.056 5.90115 172.078 9.24524 172.078 13.6926C172.078 15.899 171.904 16.7608 171.137 18.3122C170.091 20.5187 168.105 22.4493 165.804 23.449C163.434 24.4833 159.461 24.4833 157.369 23.4835C155.034 22.3458 153.466 20.8979 152.315 18.8638C151.374 17.1746 151.27 16.7264 151.27 13.727C151.27 10.969 151.409 10.2106 152.106 8.90049C154.198 4.90137 157.439 3.00523 161.9 3.14313C163.817 3.21208 164.968 3.4534 166.222 4.03948Z" fill="#2B2A29"/>
<path id="Vector_3" d="M40.6755 3.45341C33.1469 19.4499 30.3585 25.3107 30.1145 25.5865C29.3129 26.4484 29.8008 26.8621 31.439 26.7587C33.2863 26.6552 33.0075 27 35.761 21.2426L37.19 18.2088H42.488H47.7859L49.8772 22.4148L51.9336 26.6552L53.6066 26.7587C54.5129 26.8276 55.2448 26.7931 55.2448 26.7242C55.2448 26.5518 52.4913 20.691 45.1021 4.93584C43.917 2.45362 42.9062 0.764336 42.5925 0.695385C42.1743 0.626434 41.6515 1.38489 40.6755 3.45341ZM45.3809 12.8307C46.0083 14.1407 46.5311 15.2784 46.5311 15.3474C46.5311 15.3818 44.7187 15.4508 42.5228 15.4508C38.7934 15.4508 38.5494 15.4163 38.7934 14.8302C38.9328 14.451 39.839 12.5204 40.7801 10.5208L42.5228 6.83198L43.3593 8.65917C43.8473 9.62447 44.7535 11.5206 45.3809 12.8307Z" fill="#2B2A29"/>
<path id="Vector_4" d="M58.7303 13.6926V26.8276H60.2988H61.8672V20.7945C61.8672 15.7611 61.9369 14.7613 62.3552 14.7613C62.634 14.7613 63.7842 15.9334 64.8996 17.3814C66.0149 18.8294 68.1411 21.5529 69.6398 23.4146C72.2888 26.7931 72.3236 26.8276 73.8224 26.8276C74.6589 26.8276 75.4257 26.7242 75.5651 26.6208C75.6697 26.5173 75.0075 25.4486 74.1012 24.2764C66.2241 14.2097 66.6075 14.7613 67.6183 14.7613C70.4066 14.7613 73.4739 13.072 74.6241 10.9001C75.2863 9.65895 75.356 5.90115 74.7635 4.72899C74.1361 3.52235 72.6373 2.03992 71.4523 1.38489C70.6506 0.936712 69.117 0.798811 64.5859 0.695385L58.7303 0.557484V13.6926ZM70.5461 4.59109C72.7768 6.45275 72.6025 9.48657 70.1627 10.969C69.2216 11.5551 68.4199 11.6585 65.4573 11.6585H61.8672V7.69386V3.72921H65.6664C69.2564 3.72921 69.5353 3.79816 70.5461 4.59109Z" fill="#2B2A29"/>
<path id="Vector_5" d="M80.3403 13.727V26.8276H84.6623C92.6092 26.8276 96.0598 25.9657 98.7436 23.3801C103.693 18.657 103.519 8.27994 98.395 3.93606C95.3278 1.31594 92.5743 0.660908 84.976 0.626432H80.3403V13.727ZM93.7942 4.72899C95.7461 5.59087 96.8614 6.59065 98.1162 8.72812C99.0573 10.3485 99.4755 15.0716 98.8482 17.3469C98.2556 19.5189 96.5826 21.5184 94.4216 22.5527C92.7486 23.3801 92.0166 23.4835 87.9038 23.6559L83.3029 23.8283L83.4075 13.727L83.5121 3.66025L87.7643 3.79815C91.2498 3.90158 92.3303 4.07396 93.7942 4.72899Z" fill="#2B2A29"/>
<path id="Vector_6" d="M106.481 13.727V26.8276H108.05H109.618V13.727V0.626432H108.05H106.481V13.727Z" fill="#2B2A29"/>
<path id="Vector_7" d="M114.916 13.6236L115.021 26.6552H116.589H118.158V20.3463V14.0718H123.316H128.44V12.6928V11.3138H123.316H118.158V7.52148V3.72921H123.316H128.44V2.17782V0.626432H121.643H114.846L114.916 13.6236Z" fill="#2B2A29"/>
<path id="Vector_8" d="M132.274 13.727V26.8276L138.827 26.7587L145.344 26.6552V25.2762V23.8972L140.395 23.7938L135.411 23.6904V12.1756V0.626432H133.842H132.274V13.727Z" fill="#2B2A29"/>
<path id="Vector_9" d="M178.631 0.867758C178.666 1.45384 185.88 26.5518 186.09 26.7242C186.543 27.1724 187.031 26.1381 190.69 17.0711L194.42 7.79728L196.581 13.2788C197.766 16.2782 199.439 20.4842 200.275 22.6561C201.774 26.3794 202.506 27.4826 202.82 26.4139C203.029 25.7589 206.898 12.348 207.212 11.1414C207.386 10.5553 208.048 8.17651 208.745 5.79772C209.442 3.41893 210 1.28146 210 1.04013C210 0.764332 209.477 0.626431 208.501 0.626431H207.002L206.375 2.93627C205.992 4.24633 205.504 5.97009 205.26 6.83197C205.016 7.69386 204.493 9.55552 204.075 10.969C203.656 12.3825 202.994 14.6234 202.611 15.9334L201.914 18.3122L199.997 13.5202C198.951 10.9001 197.348 6.90092 196.476 4.66003C195.291 1.76411 194.699 0.626431 194.315 0.695381C194.002 0.764332 192.503 4.03948 190.307 9.62447L186.822 18.4501L186.194 16.3471C185.88 15.175 185.427 13.6925 185.253 13.0375C185.044 12.3825 184.382 9.96922 183.719 7.69386C183.057 5.41849 182.325 2.9018 182.116 2.07439C181.733 0.660906 181.733 0.626431 180.199 0.626431C179.328 0.626431 178.631 0.729856 178.631 0.867758Z" fill="#2B2A29"/>
</g>
<defs>
<clipPath id="clip0_5_592">
<rect width="210" height="27" fill="white" transform="matrix(1 0 0 -1 0 27)"/>
</clipPath>
</defs>
</svg>
