<svg width="66" height="73" viewBox="0 0 66 73" fill="none" xmlns="http://www.w3.org/2000/svg">
<g id="Black">
<path id="Vector" d="M41.6987 2.09161C40.0656 2.9345 38.4325 5.51588 38.4325 7.09631C38.4325 7.83384 38.9066 9.41428 39.5388 10.6259L40.5924 12.8912L38.9593 16.7896C36.2725 23.3221 31.0044 31.2242 24.9988 37.9147C22.5754 40.5488 22.4174 38.8103 24.63 34.7539C26.5792 31.2242 28.9499 24.2703 28.9499 22.2158C28.9499 21.6363 29.582 20.53 30.3196 19.7398C31.2678 18.7388 31.7946 17.5272 31.9527 15.8941C32.2161 13.6288 32.1107 13.3654 30.1088 11.3635C28.3704 9.57232 27.6855 9.25623 25.8944 9.25623C20.3102 9.25623 17.5181 16.3682 21.6272 20.1085C22.154 20.5827 22.6281 21.6363 22.6281 22.3738C22.5754 24.2177 20.9423 29.0116 19.3619 31.8037C18.0976 34.0163 18.0449 34.0163 17.0966 32.9627C15.3055 31.0135 14.1992 31.6457 7.61402 38.2308L1.34497 44.5526L3.13613 46.3964C4.13707 47.3973 5.19069 48.2402 5.4541 48.2402C5.77018 48.2402 8.03547 46.2384 10.5115 43.7623L14.9894 39.2845L24.2086 48.5036L33.4278 57.7228L28.6865 62.4641L23.9978 67.2054L26.0524 69.3127L28.107 71.4199L34.3233 65.2562C41.0138 58.5657 41.5406 57.5648 39.3807 55.1941L38.1691 53.9298L39.7495 52.6655C42.2255 50.6636 47.3882 47.8715 50.0223 47.1866C52.1295 46.6071 52.4456 46.6598 53.1832 47.5554C55.6592 50.6109 59.3995 51.2431 62.0336 49.0305C65.2471 46.3437 65.5632 42.0766 62.6658 39.6005C60.0317 37.4406 56.7655 37.3879 54.2368 39.4952C53.8153 39.8639 52.1295 40.4434 50.5491 40.8122C46.1766 41.7605 42.1201 43.5516 37.6422 46.6071C35.4296 48.1349 33.4804 49.2412 33.2697 49.0831C32.8483 48.609 38.4325 42.9721 46.0185 36.229L52.2876 30.5921L55.3431 30.7501C58.0298 30.9082 58.5566 30.7501 60.0317 29.4331C61.1907 28.3795 61.7702 27.3258 61.9809 25.7981C63.0345 18.0013 52.4456 16.0521 49.8643 23.5328C49.4428 24.7972 47.757 26.641 44.7542 29.2224C42.2782 31.3296 37.6422 35.6495 34.376 38.8103C31.1098 41.9185 28.3177 44.2892 28.2123 44.0784C28.0543 43.815 29.2659 42.1292 30.8464 40.2854C35.2189 35.228 37.5369 32.1198 40.4343 27.2732C43.1211 22.848 46.3346 15.7887 46.3346 14.3136C46.3346 13.8395 47.0195 13.1546 47.9151 12.6805C49.7062 11.7322 51.0759 9.41428 51.0759 7.30703C51.0759 5.51588 49.4955 2.98718 47.8097 2.09161C46.2293 1.19603 43.2791 1.19603 41.6987 2.09161ZM46.7561 5.67392C47.8097 6.72754 47.4936 8.62406 46.0712 9.57232C44.8596 10.3625 44.6488 10.3625 43.4372 9.57232C41.1192 8.04457 41.9621 5.04175 44.7542 5.04175C45.4917 5.04175 46.3873 5.30515 46.7561 5.67392ZM27.7909 13.5761C29.424 15.2092 28.0016 18.212 25.5783 18.212C23.6291 18.212 22.3647 14.9985 23.7871 13.5761C24.5773 12.7859 27.0007 12.7859 27.7909 13.5761ZM58.0825 23.5328C59.0834 24.9025 58.6093 26.5883 57.0816 27.2732C54.6056 28.4322 51.9188 24.9552 53.8153 23.0587C54.8163 22.0577 57.2396 22.3211 58.0825 23.5328ZM60.0844 41.9185C61.6121 42.7614 61.4014 45.3428 59.7683 46.4491C58.5566 47.2393 58.3459 47.2393 57.1342 46.4491C54.8163 44.9213 55.6592 41.4444 58.3459 41.3917C58.7147 41.3917 59.5049 41.6551 60.0844 41.9185Z" fill="#161616" stroke="#FFCD00" stroke-width="1.2"/>
</g>
</svg>
