<svg width="60" height="71" viewBox="0 0 60 71" fill="none" xmlns="http://www.w3.org/2000/svg">
<g id="Black">
<path id="Vector" d="M1.73875 0.518303C1.5746 0.573021 1.3147 0.805565 1.15055 1.01076L0.863281 1.3801V35.3456C0.863281 60.447 0.904319 69.4069 1.01375 69.6531C1.39677 70.4739 -0.545679 70.4192 30 70.4192C60.5458 70.4192 58.6033 70.4739 58.9863 69.6531C59.0958 69.4069 59.1368 60.447 59.1368 35.3319V1.33906L58.7401 0.901321L58.3434 0.449905L30.1779 0.422546C14.693 0.408867 1.88922 0.449905 1.73875 0.518303ZM56.2642 35.4003V67.5465H30H3.73592V35.4003V3.25415H30H56.2642V35.4003Z" fill="#161616"/>
<path id="Vector_2" d="M6.60864 35.4004V64.5371H30.0001H53.3916V61.5961C53.3916 58.7098 53.3916 58.655 53.6789 58.655C53.8293 58.655 54.144 58.4772 54.3628 58.2583L54.7595 57.8616V52.9098V47.9579L54.3628 47.5612C54.144 47.3423 53.8293 47.1645 53.6789 47.1645H53.3916V34.7164V22.2683L53.7336 22.1862C53.9251 22.1452 54.226 21.9126 54.4175 21.6938L54.7595 21.2834V16.3862V11.4891L54.3355 11.065C54.1029 10.8325 53.802 10.6409 53.6515 10.6409C53.4053 10.6409 53.3916 10.5178 53.3916 8.45227V6.26359H30.0001H6.60864V35.4004ZM50.3822 35.4004V61.6645H30.0001H9.61807V35.4004V9.13623H30.0001H50.3822V35.4004Z" fill="#161616"/>
<path id="Vector_3" d="M29.275 18.1373C29.0014 18.3014 28.3996 19.2316 27.2779 21.2425C18.6599 36.6863 14.0227 45.0854 13.9953 45.3179C13.9269 45.9472 14.0227 46.2481 14.392 46.6311L14.7887 47.0278H30H45.2113L45.608 46.6311C45.9774 46.2481 46.0731 45.9472 46.0047 45.3179C45.9774 45.0991 42.1061 38.0679 32.4212 20.6953C31.0944 18.3151 30.725 17.8911 30 17.8911C29.8085 17.8911 29.4802 18.0005 29.275 18.1373ZM32.0519 26.0029C33.1326 27.9727 35.8547 32.8698 38.0845 36.8642L42.1472 44.1552H30H17.8529L19.9321 40.4208C25.4585 30.5444 29.7264 22.843 29.8085 22.6378C29.8496 22.501 29.9316 22.4052 29.9863 22.4052C30.0274 22.4052 30.9576 24.033 32.0519 26.0029Z" fill="#161616"/>
<path id="Vector_4" d="M29.1247 28.4377C28.7143 28.7523 25.6228 34.9627 25.6228 35.4551C25.6228 35.6056 25.7459 35.9339 25.8964 36.1801C26.252 36.7683 26.8129 36.9051 28.8648 36.9051H30.5336L29.5214 38.9844C28.5502 40.9678 28.4954 41.1046 28.6322 41.5834C28.9195 42.5957 30.1369 43.0061 30.8756 42.3358C31.2997 41.9664 34.3775 35.8792 34.3775 35.4278C34.3775 34.8943 33.9808 34.2924 33.4884 34.0872C33.1601 33.9504 32.4624 33.8957 31.245 33.8957H29.4667L30.4789 31.8028C31.4502 29.833 31.5049 29.6962 31.3681 29.2174C31.0808 28.2188 29.9181 27.8084 29.1247 28.4377Z" fill="#161616"/>
<path id="Vector_5" d="M18.7968 50.4611C18.2222 51.0357 18.2086 51.7607 18.7694 52.3899L19.1661 52.8413L29.7949 52.8824C39.2062 52.9097 40.4647 52.896 40.8614 52.7045C41.7368 52.2941 41.901 51.1588 41.2033 50.4611L40.7793 50.0371H30.0001H19.2208L18.7968 50.4611Z" fill="#161616"/>
</g>
</svg>
