<svg width="22" height="71" viewBox="0 0 22 71" fill="none" xmlns="http://www.w3.org/2000/svg">
<g id="Black">
<path id="Vector" d="M6.89573 0.492622C6.553 0.513397 6.1168 0.554939 5.91947 0.586098L5.57674 0.638023L5.63905 2.21666C5.6806 3.08907 5.7533 4.33536 5.81561 4.98965C5.87792 5.69588 5.95063 12.1662 6.00255 20.8799C6.08564 36.9051 6.05448 35.96 6.68801 38.2137C6.82303 38.7018 6.92689 39.1173 6.90612 39.1276C6.86457 39.1692 4.94321 36.5831 4.41353 35.7627C4.1435 35.3472 3.74884 34.6202 3.52036 34.1529C2.71027 32.4496 2.77258 33.8724 2.73104 16.3621L2.69988 0.679565H1.68208H0.664275L0.633117 1.77007C0.612346 2.37244 0.643503 3.23447 0.705818 3.69144C0.913533 5.15583 0.94469 6.26711 0.986233 13.0905C1.01739 16.7775 1.06932 22.8739 1.12125 26.644L1.20433 33.4986L1.48475 34.3813C2.13905 36.3754 2.52333 37.0297 5.05745 40.4362C6.87496 42.8769 7.50849 43.8116 8.02778 44.8606C8.66131 46.1173 8.73401 46.5119 8.69247 48.6721L8.66131 50.6039L8.28742 50.9362C8.07971 51.1128 7.85122 51.3621 7.7889 51.4763C7.48772 52.0891 7.45656 52.8576 7.45656 61.322V69.9526L7.72659 70.181C7.99662 70.4199 8.04855 70.4199 10.7488 70.4199C13.7088 70.4199 14.0204 70.368 14.2073 69.8695C14.2488 69.7448 14.2904 65.7152 14.28 60.917L14.2696 52.1929L13.9892 51.7256C13.8438 51.4659 13.5945 51.1855 13.4491 51.1128C13.3037 51.0297 13.1583 50.8947 13.1272 50.8012C13.0856 50.7078 13.0649 49.7834 13.0649 48.7448C13.0856 46.73 13.1687 46.2315 13.6672 45.2345C14.1865 44.227 15.2459 42.8457 17.3334 40.4882C19.2963 38.276 20.418 36.4481 20.8334 34.7968C20.9373 34.3398 20.9892 31.5564 21.0723 21.2745C21.1761 8.20924 21.2281 4.96889 21.3423 2.38284C21.3839 1.6039 21.3839 0.845741 21.3423 0.689957C21.28 0.419922 21.2696 0.419922 20.1895 0.419922C19.1094 0.419922 19.099 0.419922 19.0367 0.689957C18.9744 0.9496 19.0159 2.05049 19.1925 4.8858C19.3067 6.62022 19.3171 20.5371 19.2132 28.2537L19.1405 33.4986L18.829 34.2879C18.2993 35.6173 17.2815 37.0401 14.9966 39.6781C14.4773 40.2805 13.8542 41.0386 13.6049 41.3606C13.3557 41.6929 13.1376 41.9629 13.1168 41.9629C13.096 41.9629 13.1272 41.8383 13.1791 41.6929C13.3972 41.1425 14.737 36.0431 14.9343 35.046C15.329 33.052 15.3705 31.7018 15.4121 17.4526C15.4328 9.82942 15.4848 3.05791 15.5159 2.4036C15.6094 0.648407 15.6613 0.731499 14.4254 0.731499H13.3972L13.3245 1.11577C13.283 1.33387 13.3141 2.1855 13.3972 3.01637C13.4699 3.84722 13.5426 4.89619 13.553 5.35316C13.5634 5.81013 13.6049 6.26711 13.6465 6.37096C13.688 6.47482 13.6984 12.3012 13.6569 19.3116C13.5945 31.4941 13.5842 32.1173 13.3868 33.3012C13.1687 34.5891 12.8468 35.8665 12.0886 38.4837C11.3512 41.0386 11.0085 42.3992 10.9358 43.0223C10.8942 43.3546 10.8319 43.6247 10.8008 43.6247C10.7592 43.6247 10.6658 43.4066 10.6034 43.1365C10.5307 42.8665 10.0218 41.454 9.4714 39.9897C8.31858 36.9259 8.03816 35.9496 7.88238 34.4125C7.75775 33.2181 7.80968 4.27304 7.94469 2.86057C7.97585 2.45554 7.97585 1.7493 7.93431 1.27155C7.87199 0.565323 7.83045 0.419922 7.69543 0.440697C7.59158 0.45108 7.23846 0.471855 6.89573 0.492622Z" fill="#161616"/>
</g>
</svg>
