<svg width="34" height="71" viewBox="0 0 34 71" fill="none" xmlns="http://www.w3.org/2000/svg">
<g id="Black">
<path id="Vector" d="M0.0412598 1.21922C0.0412598 1.74781 0.393649 2.14425 1.05438 2.27639L2.02345 2.45259L1.05438 2.54068C0.261503 2.58473 0.0412598 2.84903 0.0412598 3.8181C0.0412598 5.88839 2.86038 7.87058 5.72354 7.87058C7.35335 7.87058 8.41051 7.03365 8.49861 5.536C8.54266 4.87527 8.67481 4.34668 8.71886 4.34668C8.80695 4.34668 10.7891 4.87527 13.1678 5.49195C15.5024 6.15268 18.8501 7.03365 20.5239 7.43009C22.2418 7.87058 23.2549 8.26702 22.8585 8.26702C22.418 8.31107 22.0656 8.39916 22.0656 8.53131C22.0656 8.7956 25.5895 13.2445 27.1753 15.0065L28.2324 16.1517V28.9699V41.7881H29.3337H30.4349V24.0365C30.4349 11.5707 30.567 6.15268 30.9194 5.80029C31.7123 5.00741 30.9635 4.34668 29.2896 4.34668C28.1003 4.34668 27.7919 4.52288 27.7919 5.22765C27.7919 5.71219 28.0122 6.10863 28.2324 6.10863C28.4967 6.10863 28.6729 6.41697 28.6729 6.76936C28.6729 7.65033 28.4086 7.60629 23.9157 6.37292C18.6739 4.87527 8.41051 2.14425 3.12467 0.778736C0.746039 0.2061 0.0412598 0.294201 0.0412598 1.21922ZM5.98784 3.46571C7.08905 3.95024 5.94379 3.95024 4.44613 3.46571C3.56516 3.20142 3.52111 3.11332 4.22589 3.11332C4.71042 3.11332 5.5033 3.24546 5.98784 3.46571ZM28.5408 13.685C28.4527 14.4779 28.3646 13.8612 28.3646 12.2754C28.3646 10.6897 28.4527 10.073 28.5408 10.8218C28.6289 11.6147 28.6289 12.9362 28.5408 13.685Z" fill="#161616"/>
<path id="Vector_2" d="M27.836 43.7262C26.9551 45.1358 26.911 45.7965 26.911 56.7206V68.2173H29.3337H31.7564V56.6325C31.7564 46.9418 31.6242 44.7834 31.0516 43.6381C30.1706 41.7881 28.9813 41.8321 27.836 43.7262Z" fill="#161616"/>
<path id="Vector_3" d="M25.5014 68.9663C25.0609 69.0544 24.7085 69.4509 24.7085 69.8032C24.7085 70.2878 25.6335 70.4199 29.3336 70.4199C32.9897 70.4199 33.9587 70.2878 33.9587 69.8032C33.9587 69.4509 33.6504 69.0544 33.2539 68.9223C32.4611 68.6139 26.6466 68.658 25.5014 68.9663Z" fill="#161616"/>
</g>
</svg>
